<mxfile host="Drawpyo" modified="2024-11-27T16:52:06" agent="Python 3.12, Drawpyo 0.01" version="21.6.5" type="device">
  <diagram name="Page-1" id="137959604611520">
    <mxGraphModel dx="2037" dy="830" grid="1" gridSize="10" guides="1" toolTips="1" connect="1" arrows="1" fold="1" page="1" pageScale="1" pageWidth="850" pageHeight="1100" math="0" shadow="0">
      <root>
        <mxCell id="0" />
        <mxCell id="1" parent="0" />
        <mxCell id="137959604610656" value="" style="whiteSpace=wrap;rounded=0;fillColor=#8db2c5;strokeColor=#6c8ebf;dashed=0;inherit=default;html=1;strokeWidth=0;" vertex="1" parent="1">
  <mxGeometry x="0" y="20" width="120" height="20" as="geometry" />
</mxCell>
        <mxCell id="137959607595616" value="" style="whiteSpace=wrap;rounded=0;fillColor=none;strokeColor=none;dashed=0;inherit=default;html=1;strokeWidth=0;" vertex="1" parent="1">
  <mxGeometry x="0" y="0" width="0" height="0" as="geometry" />
</mxCell>
        <mxCell id="137959604611664" value="" style="whiteSpace=wrap;rounded=0;fillColor=none;strokeColor=none;dashed=0;inherit=default;html=1;strokeWidth=0;" vertex="1" parent="1">
  <mxGeometry x="0" y="40" width="0" height="0" as="geometry" />
</mxCell>
        <mxCell id="137959605761232" style="edgeStyle=orthogonalEdgeStyle;orthogonalLoop=1;rounded=0;jettySize=auto;" edge="1" parent="1" source="137959604611664" target="137959607595616">
  <mxGeometry relative="1" as="geometry" />
</mxCell>
        <mxCell id="137959605647408" value="" style="whiteSpace=wrap;rounded=0;fillColor=#8db2c5;strokeColor=#6c8ebf;dashed=0;inherit=default;html=1;strokeWidth=0;" vertex="1" parent="1">
  <mxGeometry x="200" y="20" width="120" height="20" as="geometry" />
</mxCell>
        <mxCell id="137959604612480" value="" style="whiteSpace=wrap;rounded=0;fillColor=none;strokeColor=none;dashed=0;inherit=default;html=1;strokeWidth=0;" vertex="1" parent="1">
  <mxGeometry x="200" y="0" width="0" height="0" as="geometry" />
</mxCell>
        <mxCell id="137959604612816" value="" style="whiteSpace=wrap;rounded=0;fillColor=none;strokeColor=none;dashed=0;inherit=default;html=1;strokeWidth=0;" vertex="1" parent="1">
  <mxGeometry x="200" y="40" width="0" height="0" as="geometry" />
</mxCell>
        <mxCell id="137959604612960" style="edgeStyle=orthogonalEdgeStyle;orthogonalLoop=1;rounded=0;jettySize=auto;" edge="1" parent="1" source="137959604612816" target="137959604612480">
  <mxGeometry relative="1" as="geometry" />
</mxCell>
        <mxCell id="137959604613008" value="" style="whiteSpace=wrap;rounded=0;fillColor=#8db2c5;strokeColor=#6c8ebf;dashed=0;inherit=default;html=1;strokeWidth=0;" vertex="1" parent="1">
  <mxGeometry x="400" y="20" width="120" height="20" as="geometry" />
</mxCell>
        <mxCell id="137959604613776" value="" style="whiteSpace=wrap;rounded=0;fillColor=none;strokeColor=none;dashed=0;inherit=default;html=1;strokeWidth=0;" vertex="1" parent="1">
  <mxGeometry x="400" y="0" width="0" height="0" as="geometry" />
</mxCell>
        <mxCell id="137959604614112" value="" style="whiteSpace=wrap;rounded=0;fillColor=none;strokeColor=none;dashed=0;inherit=default;html=1;strokeWidth=0;" vertex="1" parent="1">
  <mxGeometry x="400" y="40" width="0" height="0" as="geometry" />
</mxCell>
        <mxCell id="137959604614256" style="edgeStyle=orthogonalEdgeStyle;orthogonalLoop=1;rounded=0;jettySize=auto;" edge="1" parent="1" source="137959604614112" target="137959604613776">
  <mxGeometry relative="1" as="geometry" />
</mxCell>
        <mxCell id="137959604614304" value="" style="whiteSpace=wrap;rounded=0;fillColor=#8db2c5;strokeColor=#6c8ebf;dashed=0;inherit=default;html=1;strokeWidth=0;" vertex="1" parent="1">
  <mxGeometry x="600" y="20" width="120" height="20" as="geometry" />
</mxCell>
        <mxCell id="137959604615072" value="" style="whiteSpace=wrap;rounded=0;fillColor=none;strokeColor=none;dashed=0;inherit=default;html=1;strokeWidth=0;" vertex="1" parent="1">
  <mxGeometry x="600" y="0" width="0" height="0" as="geometry" />
</mxCell>
        <mxCell id="137959604615408" value="" style="whiteSpace=wrap;rounded=0;fillColor=none;strokeColor=none;dashed=0;inherit=default;html=1;strokeWidth=0;" vertex="1" parent="1">
  <mxGeometry x="600" y="40" width="0" height="0" as="geometry" />
</mxCell>
        <mxCell id="137959604615552" style="edgeStyle=orthogonalEdgeStyle;orthogonalLoop=1;rounded=0;jettySize=auto;" edge="1" parent="1" source="137959604615408" target="137959604615072">
  <mxGeometry relative="1" as="geometry" />
</mxCell>
        <mxCell id="137959604611040" value="" style="whiteSpace=wrap;rounded=0;fillColor=none;strokeColor=none;dashed=0;inherit=default;html=1;strokeWidth=0;" vertex="1" parent="1">
  <mxGeometry x="0" y="40" width="0" height="0" as="geometry" />
</mxCell>
        <mxCell id="137959604616272" value="" style="whiteSpace=wrap;rounded=0;fillColor=none;strokeColor=none;dashed=0;inherit=default;html=1;strokeWidth=0;" vertex="1" parent="1">
  <mxGeometry x="600" y="40" width="0" height="0" as="geometry" />
</mxCell>
        <mxCell id="137959604616416" style="edgeStyle=orthogonalEdgeStyle;orthogonalLoop=1;rounded=0;jettySize=auto;endArrow=none;" edge="1" parent="1" source="137959604616272" target="137959604611040">
  <mxGeometry relative="1" as="geometry" />
</mxCell>
        <mxCell id="137959604748368" value="0" style="text;whiteSpace=wrap;rounded=0;dashed=0;inherit=default;" vertex="1" parent="1">
  <mxGeometry x="-5" y="40" width="0" height="0" as="geometry" />
</mxCell>
        <mxCell id="137959604748560" value="1" style="text;whiteSpace=wrap;rounded=0;dashed=0;inherit=default;" vertex="1" parent="1">
  <mxGeometry x="35" y="40" width="0" height="0" as="geometry" />
</mxCell>
        <mxCell id="137959604748752" value="2" style="text;whiteSpace=wrap;rounded=0;dashed=0;inherit=default;" vertex="1" parent="1">
  <mxGeometry x="75" y="40" width="0" height="0" as="geometry" />
</mxCell>
        <mxCell id="137959604748944" value="3" style="text;whiteSpace=wrap;rounded=0;dashed=0;inherit=default;" vertex="1" parent="1">
  <mxGeometry x="115" y="40" width="0" height="0" as="geometry" />
</mxCell>
        <mxCell id="137959604749136" value="4" style="text;whiteSpace=wrap;rounded=0;dashed=0;inherit=default;" vertex="1" parent="1">
  <mxGeometry x="155" y="40" width="0" height="0" as="geometry" />
</mxCell>
        <mxCell id="137959604749328" value="5" style="text;whiteSpace=wrap;rounded=0;dashed=0;inherit=default;" vertex="1" parent="1">
  <mxGeometry x="195" y="40" width="0" height="0" as="geometry" />
</mxCell>
        <mxCell id="137959604749520" value="6" style="text;whiteSpace=wrap;rounded=0;dashed=0;inherit=default;" vertex="1" parent="1">
  <mxGeometry x="235" y="40" width="0" height="0" as="geometry" />
</mxCell>
        <mxCell id="137959604749712" value="7" style="text;whiteSpace=wrap;rounded=0;dashed=0;inherit=default;" vertex="1" parent="1">
  <mxGeometry x="275" y="40" width="0" height="0" as="geometry" />
</mxCell>
        <mxCell id="137959604749904" value="8" style="text;whiteSpace=wrap;rounded=0;dashed=0;inherit=default;" vertex="1" parent="1">
  <mxGeometry x="315" y="40" width="0" height="0" as="geometry" />
</mxCell>
        <mxCell id="137959604750096" value="9" style="text;whiteSpace=wrap;rounded=0;dashed=0;inherit=default;" vertex="1" parent="1">
  <mxGeometry x="355" y="40" width="0" height="0" as="geometry" />
</mxCell>
        <mxCell id="137959604750288" value="10" style="text;whiteSpace=wrap;rounded=0;dashed=0;inherit=default;" vertex="1" parent="1">
  <mxGeometry x="395" y="40" width="0" height="0" as="geometry" />
</mxCell>
        <mxCell id="137959604750480" value="11" style="text;whiteSpace=wrap;rounded=0;dashed=0;inherit=default;" vertex="1" parent="1">
  <mxGeometry x="435" y="40" width="0" height="0" as="geometry" />
</mxCell>
        <mxCell id="137959604750672" value="12" style="text;whiteSpace=wrap;rounded=0;dashed=0;inherit=default;" vertex="1" parent="1">
  <mxGeometry x="475" y="40" width="0" height="0" as="geometry" />
</mxCell>
        <mxCell id="137959604750864" value="13" style="text;whiteSpace=wrap;rounded=0;dashed=0;inherit=default;" vertex="1" parent="1">
  <mxGeometry x="515" y="40" width="0" height="0" as="geometry" />
</mxCell>
        <mxCell id="137959604751056" value="14" style="text;whiteSpace=wrap;rounded=0;dashed=0;inherit=default;" vertex="1" parent="1">
  <mxGeometry x="555" y="40" width="0" height="0" as="geometry" />
</mxCell>
        <mxCell id="137959604751248" value="15" style="text;whiteSpace=wrap;rounded=0;dashed=0;inherit=default;" vertex="1" parent="1">
  <mxGeometry x="595" y="40" width="0" height="0" as="geometry" />
</mxCell>
        <mxCell id="137959604751392" value="$$\tau_1: T=5, C=[2,3]$$" style="text;whiteSpace=wrap;rounded=0;dashed=0;inherit=default;" vertex="1" parent="1">
  <mxGeometry x="-132.0" y="15" width="120" height="40" as="geometry" />
</mxCell>
        <mxCell id="137959604751536" value="" style="whiteSpace=wrap;rounded=0;fillColor=#3d9fc2;strokeColor=#6c8ebf;dashed=0;inherit=default;html=1;strokeWidth=0;" vertex="1" parent="1">
  <mxGeometry x="0" y="100" width="160" height="20" as="geometry" />
</mxCell>
        <mxCell id="137959605876880" value="" style="whiteSpace=wrap;rounded=0;fillColor=none;strokeColor=none;dashed=0;inherit=default;html=1;strokeWidth=0;" vertex="1" parent="1">
  <mxGeometry x="0" y="80" width="0" height="0" as="geometry" />
</mxCell>
        <mxCell id="137959604752016" value="" style="whiteSpace=wrap;rounded=0;fillColor=none;strokeColor=none;dashed=0;inherit=default;html=1;strokeWidth=0;" vertex="1" parent="1">
  <mxGeometry x="0" y="120" width="0" height="0" as="geometry" />
</mxCell>
        <mxCell id="137959604752160" style="edgeStyle=orthogonalEdgeStyle;orthogonalLoop=1;rounded=0;jettySize=auto;" edge="1" parent="1" source="137959604752016" target="137959605876880">
  <mxGeometry relative="1" as="geometry" />
</mxCell>
        <mxCell id="137959604752208" value="" style="whiteSpace=wrap;rounded=0;fillColor=#3d9fc2;strokeColor=#6c8ebf;dashed=0;inherit=default;html=1;strokeWidth=0;" vertex="1" parent="1">
  <mxGeometry x="400" y="100" width="160" height="20" as="geometry" />
</mxCell>
        <mxCell id="137959604752976" value="" style="whiteSpace=wrap;rounded=0;fillColor=none;strokeColor=none;dashed=0;inherit=default;html=1;strokeWidth=0;" vertex="1" parent="1">
  <mxGeometry x="400" y="80" width="0" height="0" as="geometry" />
</mxCell>
        <mxCell id="137959604753312" value="" style="whiteSpace=wrap;rounded=0;fillColor=none;strokeColor=none;dashed=0;inherit=default;html=1;strokeWidth=0;" vertex="1" parent="1">
  <mxGeometry x="400" y="120" width="0" height="0" as="geometry" />
</mxCell>
        <mxCell id="137959604753456" style="edgeStyle=orthogonalEdgeStyle;orthogonalLoop=1;rounded=0;jettySize=auto;" edge="1" parent="1" source="137959604753312" target="137959604752976">
  <mxGeometry relative="1" as="geometry" />
</mxCell>
        <mxCell id="137959604751584" value="" style="whiteSpace=wrap;rounded=0;fillColor=none;strokeColor=none;dashed=0;inherit=default;html=1;strokeWidth=0;" vertex="1" parent="1">
  <mxGeometry x="0" y="120" width="0" height="0" as="geometry" />
</mxCell>
        <mxCell id="137959604754176" value="" style="whiteSpace=wrap;rounded=0;fillColor=none;strokeColor=none;dashed=0;inherit=default;html=1;strokeWidth=0;" vertex="1" parent="1">
  <mxGeometry x="600" y="120" width="0" height="0" as="geometry" />
</mxCell>
        <mxCell id="137959604754320" style="edgeStyle=orthogonalEdgeStyle;orthogonalLoop=1;rounded=0;jettySize=auto;endArrow=none;" edge="1" parent="1" source="137959604754176" target="137959604751584">
  <mxGeometry relative="1" as="geometry" />
</mxCell>
        <mxCell id="137959604755184" value="0" style="text;whiteSpace=wrap;rounded=0;dashed=0;inherit=default;" vertex="1" parent="1">
  <mxGeometry x="-5" y="120" width="0" height="0" as="geometry" />
</mxCell>
        <mxCell id="137959604755376" value="1" style="text;whiteSpace=wrap;rounded=0;dashed=0;inherit=default;" vertex="1" parent="1">
  <mxGeometry x="35" y="120" width="0" height="0" as="geometry" />
</mxCell>
        <mxCell id="137959604755568" value="2" style="text;whiteSpace=wrap;rounded=0;dashed=0;inherit=default;" vertex="1" parent="1">
  <mxGeometry x="75" y="120" width="0" height="0" as="geometry" />
</mxCell>
        <mxCell id="137959604755760" value="3" style="text;whiteSpace=wrap;rounded=0;dashed=0;inherit=default;" vertex="1" parent="1">
  <mxGeometry x="115" y="120" width="0" height="0" as="geometry" />
</mxCell>
        <mxCell id="137959604755952" value="4" style="text;whiteSpace=wrap;rounded=0;dashed=0;inherit=default;" vertex="1" parent="1">
  <mxGeometry x="155" y="120" width="0" height="0" as="geometry" />
</mxCell>
        <mxCell id="137959604756144" value="5" style="text;whiteSpace=wrap;rounded=0;dashed=0;inherit=default;" vertex="1" parent="1">
  <mxGeometry x="195" y="120" width="0" height="0" as="geometry" />
</mxCell>
        <mxCell id="137959604756336" value="6" style="text;whiteSpace=wrap;rounded=0;dashed=0;inherit=default;" vertex="1" parent="1">
  <mxGeometry x="235" y="120" width="0" height="0" as="geometry" />
</mxCell>
        <mxCell id="137959604756528" value="7" style="text;whiteSpace=wrap;rounded=0;dashed=0;inherit=default;" vertex="1" parent="1">
  <mxGeometry x="275" y="120" width="0" height="0" as="geometry" />
</mxCell>
        <mxCell id="137959604756720" value="8" style="text;whiteSpace=wrap;rounded=0;dashed=0;inherit=default;" vertex="1" parent="1">
  <mxGeometry x="315" y="120" width="0" height="0" as="geometry" />
</mxCell>
        <mxCell id="137959604756912" value="9" style="text;whiteSpace=wrap;rounded=0;dashed=0;inherit=default;" vertex="1" parent="1">
  <mxGeometry x="355" y="120" width="0" height="0" as="geometry" />
</mxCell>
        <mxCell id="137959604757104" value="10" style="text;whiteSpace=wrap;rounded=0;dashed=0;inherit=default;" vertex="1" parent="1">
  <mxGeometry x="395" y="120" width="0" height="0" as="geometry" />
</mxCell>
        <mxCell id="137959606501104" value="11" style="text;whiteSpace=wrap;rounded=0;dashed=0;inherit=default;" vertex="1" parent="1">
  <mxGeometry x="435" y="120" width="0" height="0" as="geometry" />
</mxCell>
        <mxCell id="137959606404400" value="12" style="text;whiteSpace=wrap;rounded=0;dashed=0;inherit=default;" vertex="1" parent="1">
  <mxGeometry x="475" y="120" width="0" height="0" as="geometry" />
</mxCell>
        <mxCell id="137959604757296" value="13" style="text;whiteSpace=wrap;rounded=0;dashed=0;inherit=default;" vertex="1" parent="1">
  <mxGeometry x="515" y="120" width="0" height="0" as="geometry" />
</mxCell>
        <mxCell id="137959604757488" value="14" style="text;whiteSpace=wrap;rounded=0;dashed=0;inherit=default;" vertex="1" parent="1">
  <mxGeometry x="555" y="120" width="0" height="0" as="geometry" />
</mxCell>
        <mxCell id="137959604757680" value="15" style="text;whiteSpace=wrap;rounded=0;dashed=0;inherit=default;" vertex="1" parent="1">
  <mxGeometry x="595" y="120" width="0" height="0" as="geometry" />
</mxCell>
        <mxCell id="137959604757824" value="$$\tau_2: T=10, C=[3,4]$$" style="text;whiteSpace=wrap;rounded=0;dashed=0;inherit=default;" vertex="1" parent="1">
  <mxGeometry x="-132.0" y="95" width="120" height="40" as="geometry" />
</mxCell>
        <mxCell id="137959604754368" value="" style="whiteSpace=wrap;rounded=0;fillColor=#38bf4a;strokeColor=#6c8ebf;dashed=0;inherit=default;html=1;strokeWidth=0;" vertex="1" parent="1">
  <mxGeometry x="0" y="180" width="120" height="20" as="geometry" />
</mxCell>
        <mxCell id="137959604758160" value="" style="whiteSpace=wrap;rounded=0;fillColor=none;strokeColor=none;dashed=0;inherit=default;html=1;strokeWidth=0;" vertex="1" parent="1">
  <mxGeometry x="0" y="160" width="0" height="0" as="geometry" />
</mxCell>
        <mxCell id="137959604758496" value="" style="whiteSpace=wrap;rounded=0;fillColor=none;strokeColor=none;dashed=0;inherit=default;html=1;strokeWidth=0;" vertex="1" parent="1">
  <mxGeometry x="0" y="200" width="0" height="0" as="geometry" />
</mxCell>
        <mxCell id="137959604758640" style="edgeStyle=orthogonalEdgeStyle;orthogonalLoop=1;rounded=0;jettySize=auto;" edge="1" parent="1" source="137959604758496" target="137959604758160">
  <mxGeometry relative="1" as="geometry" />
</mxCell>
        <mxCell id="137959604758688" value="" style="whiteSpace=wrap;rounded=0;fillColor=#38bf4a;strokeColor=#6c8ebf;dashed=0;inherit=default;html=1;strokeWidth=0;" vertex="1" parent="1">
  <mxGeometry x="560" y="180" width="120" height="20" as="geometry" />
</mxCell>
        <mxCell id="137959604759456" value="" style="whiteSpace=wrap;rounded=0;fillColor=none;strokeColor=none;dashed=0;inherit=default;html=1;strokeWidth=0;" vertex="1" parent="1">
  <mxGeometry x="560" y="160" width="0" height="0" as="geometry" />
</mxCell>
        <mxCell id="137959604759792" value="" style="whiteSpace=wrap;rounded=0;fillColor=none;strokeColor=none;dashed=0;inherit=default;html=1;strokeWidth=0;" vertex="1" parent="1">
  <mxGeometry x="560" y="200" width="0" height="0" as="geometry" />
</mxCell>
        <mxCell id="137959604614352" style="edgeStyle=orthogonalEdgeStyle;orthogonalLoop=1;rounded=0;jettySize=auto;" edge="1" parent="1" source="137959604759792" target="137959604759456">
  <mxGeometry relative="1" as="geometry" />
</mxCell>
        <mxCell id="137959604757968" value="" style="whiteSpace=wrap;rounded=0;fillColor=none;strokeColor=none;dashed=0;inherit=default;html=1;strokeWidth=0;" vertex="1" parent="1">
  <mxGeometry x="0" y="200" width="0" height="0" as="geometry" />
</mxCell>
        <mxCell id="137959604760608" value="" style="whiteSpace=wrap;rounded=0;fillColor=none;strokeColor=none;dashed=0;inherit=default;html=1;strokeWidth=0;" vertex="1" parent="1">
  <mxGeometry x="600" y="200" width="0" height="0" as="geometry" />
</mxCell>
        <mxCell id="137959604760752" style="edgeStyle=orthogonalEdgeStyle;orthogonalLoop=1;rounded=0;jettySize=auto;endArrow=none;" edge="1" parent="1" source="137959604760608" target="137959604757968">
  <mxGeometry relative="1" as="geometry" />
</mxCell>
        <mxCell id="137959604761616" value="0" style="text;whiteSpace=wrap;rounded=0;dashed=0;inherit=default;" vertex="1" parent="1">
  <mxGeometry x="-5" y="200" width="0" height="0" as="geometry" />
</mxCell>
        <mxCell id="137959604761808" value="1" style="text;whiteSpace=wrap;rounded=0;dashed=0;inherit=default;" vertex="1" parent="1">
  <mxGeometry x="35" y="200" width="0" height="0" as="geometry" />
</mxCell>
        <mxCell id="137959604762000" value="2" style="text;whiteSpace=wrap;rounded=0;dashed=0;inherit=default;" vertex="1" parent="1">
  <mxGeometry x="75" y="200" width="0" height="0" as="geometry" />
</mxCell>
        <mxCell id="137959604762192" value="3" style="text;whiteSpace=wrap;rounded=0;dashed=0;inherit=default;" vertex="1" parent="1">
  <mxGeometry x="115" y="200" width="0" height="0" as="geometry" />
</mxCell>
        <mxCell id="137959604762384" value="4" style="text;whiteSpace=wrap;rounded=0;dashed=0;inherit=default;" vertex="1" parent="1">
  <mxGeometry x="155" y="200" width="0" height="0" as="geometry" />
</mxCell>
        <mxCell id="137959604762576" value="5" style="text;whiteSpace=wrap;rounded=0;dashed=0;inherit=default;" vertex="1" parent="1">
  <mxGeometry x="195" y="200" width="0" height="0" as="geometry" />
</mxCell>
        <mxCell id="137959604762768" value="6" style="text;whiteSpace=wrap;rounded=0;dashed=0;inherit=default;" vertex="1" parent="1">
  <mxGeometry x="235" y="200" width="0" height="0" as="geometry" />
</mxCell>
        <mxCell id="137959604762960" value="7" style="text;whiteSpace=wrap;rounded=0;dashed=0;inherit=default;" vertex="1" parent="1">
  <mxGeometry x="275" y="200" width="0" height="0" as="geometry" />
</mxCell>
        <mxCell id="137959604763152" value="8" style="text;whiteSpace=wrap;rounded=0;dashed=0;inherit=default;" vertex="1" parent="1">
  <mxGeometry x="315" y="200" width="0" height="0" as="geometry" />
</mxCell>
        <mxCell id="137959604763344" value="9" style="text;whiteSpace=wrap;rounded=0;dashed=0;inherit=default;" vertex="1" parent="1">
  <mxGeometry x="355" y="200" width="0" height="0" as="geometry" />
</mxCell>
        <mxCell id="137959604763536" value="10" style="text;whiteSpace=wrap;rounded=0;dashed=0;inherit=default;" vertex="1" parent="1">
  <mxGeometry x="395" y="200" width="0" height="0" as="geometry" />
</mxCell>
        <mxCell id="137959604763728" value="11" style="text;whiteSpace=wrap;rounded=0;dashed=0;inherit=default;" vertex="1" parent="1">
  <mxGeometry x="435" y="200" width="0" height="0" as="geometry" />
</mxCell>
        <mxCell id="137959604763920" value="12" style="text;whiteSpace=wrap;rounded=0;dashed=0;inherit=default;" vertex="1" parent="1">
  <mxGeometry x="475" y="200" width="0" height="0" as="geometry" />
</mxCell>
        <mxCell id="137959604764112" value="13" style="text;whiteSpace=wrap;rounded=0;dashed=0;inherit=default;" vertex="1" parent="1">
  <mxGeometry x="515" y="200" width="0" height="0" as="geometry" />
</mxCell>
        <mxCell id="137959604764304" value="14" style="text;whiteSpace=wrap;rounded=0;dashed=0;inherit=default;" vertex="1" parent="1">
  <mxGeometry x="555" y="200" width="0" height="0" as="geometry" />
</mxCell>
        <mxCell id="137959604764496" value="15" style="text;whiteSpace=wrap;rounded=0;dashed=0;inherit=default;" vertex="1" parent="1">
  <mxGeometry x="595" y="200" width="0" height="0" as="geometry" />
</mxCell>
        <mxCell id="137959604764640" value="$$\tau_3: T=14, C=[2,3]$$" style="text;whiteSpace=wrap;rounded=0;dashed=0;inherit=default;" vertex="1" parent="1">
  <mxGeometry x="-132.0" y="175" width="120" height="40" as="geometry" />
</mxCell>
        <mxCell id="137959604616464" value="" style="whiteSpace=wrap;rounded=0;fillColor=#c95967;strokeColor=#6c8ebf;dashed=0;inherit=default;html=1;strokeWidth=0;" vertex="1" parent="1">
  <mxGeometry x="0" y="260" width="120" height="20" as="geometry" />
</mxCell>
        <mxCell id="137959604846960" value="" style="whiteSpace=wrap;rounded=0;fillColor=none;strokeColor=none;dashed=0;inherit=default;html=1;strokeWidth=0;" vertex="1" parent="1">
  <mxGeometry x="0" y="240" width="0" height="0" as="geometry" />
</mxCell>
        <mxCell id="137959604847296" value="" style="whiteSpace=wrap;rounded=0;fillColor=none;strokeColor=none;dashed=0;inherit=default;html=1;strokeWidth=0;" vertex="1" parent="1">
  <mxGeometry x="0" y="280" width="0" height="0" as="geometry" />
</mxCell>
        <mxCell id="137959604847440" style="edgeStyle=orthogonalEdgeStyle;orthogonalLoop=1;rounded=0;jettySize=auto;" edge="1" parent="1" source="137959604847296" target="137959604846960">
  <mxGeometry relative="1" as="geometry" />
</mxCell>
        <mxCell id="137959604847488" value="" style="whiteSpace=wrap;rounded=0;fillColor=#c95967;strokeColor=#6c8ebf;dashed=0;inherit=default;html=1;strokeWidth=0;" vertex="1" parent="1">
  <mxGeometry x="440" y="260" width="120" height="20" as="geometry" />
</mxCell>
        <mxCell id="137959604848256" value="" style="whiteSpace=wrap;rounded=0;fillColor=none;strokeColor=none;dashed=0;inherit=default;html=1;strokeWidth=0;" vertex="1" parent="1">
  <mxGeometry x="440" y="240" width="0" height="0" as="geometry" />
</mxCell>
        <mxCell id="137959604848592" value="" style="whiteSpace=wrap;rounded=0;fillColor=none;strokeColor=none;dashed=0;inherit=default;html=1;strokeWidth=0;" vertex="1" parent="1">
  <mxGeometry x="440" y="280" width="0" height="0" as="geometry" />
</mxCell>
        <mxCell id="137959604848736" style="edgeStyle=orthogonalEdgeStyle;orthogonalLoop=1;rounded=0;jettySize=auto;" edge="1" parent="1" source="137959604848592" target="137959604848256">
  <mxGeometry relative="1" as="geometry" />
</mxCell>
        <mxCell id="137959604846768" value="" style="whiteSpace=wrap;rounded=0;fillColor=none;strokeColor=none;dashed=0;inherit=default;html=1;strokeWidth=0;" vertex="1" parent="1">
  <mxGeometry x="0" y="280" width="0" height="0" as="geometry" />
</mxCell>
        <mxCell id="137959604849456" value="" style="whiteSpace=wrap;rounded=0;fillColor=none;strokeColor=none;dashed=0;inherit=default;html=1;strokeWidth=0;" vertex="1" parent="1">
  <mxGeometry x="600" y="280" width="0" height="0" as="geometry" />
</mxCell>
        <mxCell id="137959605877984" style="edgeStyle=orthogonalEdgeStyle;orthogonalLoop=1;rounded=0;jettySize=auto;endArrow=none;" edge="1" parent="1" source="137959604849456" target="137959604846768">
  <mxGeometry relative="1" as="geometry" />
</mxCell>
        <mxCell id="137959604850368" value="0" style="text;whiteSpace=wrap;rounded=0;dashed=0;inherit=default;" vertex="1" parent="1">
  <mxGeometry x="-5" y="280" width="0" height="0" as="geometry" />
</mxCell>
        <mxCell id="137959604850560" value="1" style="text;whiteSpace=wrap;rounded=0;dashed=0;inherit=default;" vertex="1" parent="1">
  <mxGeometry x="35" y="280" width="0" height="0" as="geometry" />
</mxCell>
        <mxCell id="137959604850752" value="2" style="text;whiteSpace=wrap;rounded=0;dashed=0;inherit=default;" vertex="1" parent="1">
  <mxGeometry x="75" y="280" width="0" height="0" as="geometry" />
</mxCell>
        <mxCell id="137959604850944" value="3" style="text;whiteSpace=wrap;rounded=0;dashed=0;inherit=default;" vertex="1" parent="1">
  <mxGeometry x="115" y="280" width="0" height="0" as="geometry" />
</mxCell>
        <mxCell id="137959604851136" value="4" style="text;whiteSpace=wrap;rounded=0;dashed=0;inherit=default;" vertex="1" parent="1">
  <mxGeometry x="155" y="280" width="0" height="0" as="geometry" />
</mxCell>
        <mxCell id="137959604851328" value="5" style="text;whiteSpace=wrap;rounded=0;dashed=0;inherit=default;" vertex="1" parent="1">
  <mxGeometry x="195" y="280" width="0" height="0" as="geometry" />
</mxCell>
        <mxCell id="137959604851520" value="6" style="text;whiteSpace=wrap;rounded=0;dashed=0;inherit=default;" vertex="1" parent="1">
  <mxGeometry x="235" y="280" width="0" height="0" as="geometry" />
</mxCell>
        <mxCell id="137959604851712" value="7" style="text;whiteSpace=wrap;rounded=0;dashed=0;inherit=default;" vertex="1" parent="1">
  <mxGeometry x="275" y="280" width="0" height="0" as="geometry" />
</mxCell>
        <mxCell id="137959604851904" value="8" style="text;whiteSpace=wrap;rounded=0;dashed=0;inherit=default;" vertex="1" parent="1">
  <mxGeometry x="315" y="280" width="0" height="0" as="geometry" />
</mxCell>
        <mxCell id="137959604852096" value="9" style="text;whiteSpace=wrap;rounded=0;dashed=0;inherit=default;" vertex="1" parent="1">
  <mxGeometry x="355" y="280" width="0" height="0" as="geometry" />
</mxCell>
        <mxCell id="137959604852288" value="10" style="text;whiteSpace=wrap;rounded=0;dashed=0;inherit=default;" vertex="1" parent="1">
  <mxGeometry x="395" y="280" width="0" height="0" as="geometry" />
</mxCell>
        <mxCell id="137959604852480" value="11" style="text;whiteSpace=wrap;rounded=0;dashed=0;inherit=default;" vertex="1" parent="1">
  <mxGeometry x="435" y="280" width="0" height="0" as="geometry" />
</mxCell>
        <mxCell id="137959604852672" value="12" style="text;whiteSpace=wrap;rounded=0;dashed=0;inherit=default;" vertex="1" parent="1">
  <mxGeometry x="475" y="280" width="0" height="0" as="geometry" />
</mxCell>
        <mxCell id="137959604852864" value="13" style="text;whiteSpace=wrap;rounded=0;dashed=0;inherit=default;" vertex="1" parent="1">
  <mxGeometry x="515" y="280" width="0" height="0" as="geometry" />
</mxCell>
        <mxCell id="137959604853056" value="14" style="text;whiteSpace=wrap;rounded=0;dashed=0;inherit=default;" vertex="1" parent="1">
  <mxGeometry x="555" y="280" width="0" height="0" as="geometry" />
</mxCell>
        <mxCell id="137959604853248" value="15" style="text;whiteSpace=wrap;rounded=0;dashed=0;inherit=default;" vertex="1" parent="1">
  <mxGeometry x="595" y="280" width="0" height="0" as="geometry" />
</mxCell>
        <mxCell id="137959604853392" value="$$\tau_4: T=11, C=[2,3]$$" style="text;whiteSpace=wrap;rounded=0;dashed=0;inherit=default;" vertex="1" parent="1">
  <mxGeometry x="-132.0" y="255" width="120" height="40" as="geometry" />
</mxCell>
        <mxCell id="137959604849072" value="" style="whiteSpace=wrap;rounded=0;fillColor=#c13ba1;strokeColor=#6c8ebf;dashed=0;inherit=default;html=1;strokeWidth=0;" vertex="1" parent="1">
  <mxGeometry x="0" y="340" width="200" height="20" as="geometry" />
</mxCell>
        <mxCell id="137959604853728" value="" style="whiteSpace=wrap;rounded=0;fillColor=none;strokeColor=none;dashed=0;inherit=default;html=1;strokeWidth=0;" vertex="1" parent="1">
  <mxGeometry x="0" y="320" width="0" height="0" as="geometry" />
</mxCell>
        <mxCell id="137959604854064" value="" style="whiteSpace=wrap;rounded=0;fillColor=none;strokeColor=none;dashed=0;inherit=default;html=1;strokeWidth=0;" vertex="1" parent="1">
  <mxGeometry x="0" y="360" width="0" height="0" as="geometry" />
</mxCell>
        <mxCell id="137959604854208" style="edgeStyle=orthogonalEdgeStyle;orthogonalLoop=1;rounded=0;jettySize=auto;" edge="1" parent="1" source="137959604854064" target="137959604853728">
  <mxGeometry relative="1" as="geometry" />
</mxCell>
        <mxCell id="137959604854256" value="" style="whiteSpace=wrap;rounded=0;fillColor=#c13ba1;strokeColor=#6c8ebf;dashed=0;inherit=default;html=1;strokeWidth=0;" vertex="1" parent="1">
  <mxGeometry x="400" y="340" width="200" height="20" as="geometry" />
</mxCell>
        <mxCell id="137959604855024" value="" style="whiteSpace=wrap;rounded=0;fillColor=none;strokeColor=none;dashed=0;inherit=default;html=1;strokeWidth=0;" vertex="1" parent="1">
  <mxGeometry x="400" y="320" width="0" height="0" as="geometry" />
</mxCell>
        <mxCell id="137959604855360" value="" style="whiteSpace=wrap;rounded=0;fillColor=none;strokeColor=none;dashed=0;inherit=default;html=1;strokeWidth=0;" vertex="1" parent="1">
  <mxGeometry x="400" y="360" width="0" height="0" as="geometry" />
</mxCell>
        <mxCell id="137959604855504" style="edgeStyle=orthogonalEdgeStyle;orthogonalLoop=1;rounded=0;jettySize=auto;" edge="1" parent="1" source="137959604855360" target="137959604855024">
  <mxGeometry relative="1" as="geometry" />
</mxCell>
        <mxCell id="137959604853536" value="" style="whiteSpace=wrap;rounded=0;fillColor=none;strokeColor=none;dashed=0;inherit=default;html=1;strokeWidth=0;" vertex="1" parent="1">
  <mxGeometry x="0" y="360" width="0" height="0" as="geometry" />
</mxCell>
        <mxCell id="137959604856224" value="" style="whiteSpace=wrap;rounded=0;fillColor=none;strokeColor=none;dashed=0;inherit=default;html=1;strokeWidth=0;" vertex="1" parent="1">
  <mxGeometry x="600" y="360" width="0" height="0" as="geometry" />
</mxCell>
        <mxCell id="137959604856368" style="edgeStyle=orthogonalEdgeStyle;orthogonalLoop=1;rounded=0;jettySize=auto;endArrow=none;" edge="1" parent="1" source="137959604856224" target="137959604853536">
  <mxGeometry relative="1" as="geometry" />
</mxCell>
        <mxCell id="137959604857232" value="0" style="text;whiteSpace=wrap;rounded=0;dashed=0;inherit=default;" vertex="1" parent="1">
  <mxGeometry x="-5" y="360" width="0" height="0" as="geometry" />
</mxCell>
        <mxCell id="137959604857424" value="1" style="text;whiteSpace=wrap;rounded=0;dashed=0;inherit=default;" vertex="1" parent="1">
  <mxGeometry x="35" y="360" width="0" height="0" as="geometry" />
</mxCell>
        <mxCell id="137959604857616" value="2" style="text;whiteSpace=wrap;rounded=0;dashed=0;inherit=default;" vertex="1" parent="1">
  <mxGeometry x="75" y="360" width="0" height="0" as="geometry" />
</mxCell>
        <mxCell id="137959604857808" value="3" style="text;whiteSpace=wrap;rounded=0;dashed=0;inherit=default;" vertex="1" parent="1">
  <mxGeometry x="115" y="360" width="0" height="0" as="geometry" />
</mxCell>
        <mxCell id="137959604858000" value="4" style="text;whiteSpace=wrap;rounded=0;dashed=0;inherit=default;" vertex="1" parent="1">
  <mxGeometry x="155" y="360" width="0" height="0" as="geometry" />
</mxCell>
        <mxCell id="137959604858192" value="5" style="text;whiteSpace=wrap;rounded=0;dashed=0;inherit=default;" vertex="1" parent="1">
  <mxGeometry x="195" y="360" width="0" height="0" as="geometry" />
</mxCell>
        <mxCell id="137959604858384" value="6" style="text;whiteSpace=wrap;rounded=0;dashed=0;inherit=default;" vertex="1" parent="1">
  <mxGeometry x="235" y="360" width="0" height="0" as="geometry" />
</mxCell>
        <mxCell id="137959604858576" value="7" style="text;whiteSpace=wrap;rounded=0;dashed=0;inherit=default;" vertex="1" parent="1">
  <mxGeometry x="275" y="360" width="0" height="0" as="geometry" />
</mxCell>
        <mxCell id="137959604858768" value="8" style="text;whiteSpace=wrap;rounded=0;dashed=0;inherit=default;" vertex="1" parent="1">
  <mxGeometry x="315" y="360" width="0" height="0" as="geometry" />
</mxCell>
        <mxCell id="137959604858960" value="9" style="text;whiteSpace=wrap;rounded=0;dashed=0;inherit=default;" vertex="1" parent="1">
  <mxGeometry x="355" y="360" width="0" height="0" as="geometry" />
</mxCell>
        <mxCell id="137959604859152" value="10" style="text;whiteSpace=wrap;rounded=0;dashed=0;inherit=default;" vertex="1" parent="1">
  <mxGeometry x="395" y="360" width="0" height="0" as="geometry" />
</mxCell>
        <mxCell id="137959604859344" value="11" style="text;whiteSpace=wrap;rounded=0;dashed=0;inherit=default;" vertex="1" parent="1">
  <mxGeometry x="435" y="360" width="0" height="0" as="geometry" />
</mxCell>
        <mxCell id="137959604859536" value="12" style="text;whiteSpace=wrap;rounded=0;dashed=0;inherit=default;" vertex="1" parent="1">
  <mxGeometry x="475" y="360" width="0" height="0" as="geometry" />
</mxCell>
        <mxCell id="137959604859728" value="13" style="text;whiteSpace=wrap;rounded=0;dashed=0;inherit=default;" vertex="1" parent="1">
  <mxGeometry x="515" y="360" width="0" height="0" as="geometry" />
</mxCell>
        <mxCell id="137959604859920" value="14" style="text;whiteSpace=wrap;rounded=0;dashed=0;inherit=default;" vertex="1" parent="1">
  <mxGeometry x="555" y="360" width="0" height="0" as="geometry" />
</mxCell>
        <mxCell id="137959604860112" value="15" style="text;whiteSpace=wrap;rounded=0;dashed=0;inherit=default;" vertex="1" parent="1">
  <mxGeometry x="595" y="360" width="0" height="0" as="geometry" />
</mxCell>
        <mxCell id="137959604860256" value="$$\tau_5: T=10, C=[4,5]$$" style="text;whiteSpace=wrap;rounded=0;dashed=0;inherit=default;" vertex="1" parent="1">
  <mxGeometry x="-132.0" y="335" width="120" height="40" as="geometry" />
</mxCell>
      </root>
    </mxGraphModel>
  </diagram>
</mxfile>